<svg viewBox="0 0 455.92152 197.98347" xmlns="http://www.w3.org/2000/svg"><path d="m217.33946 83.70012 24.903-63.811h5.62906l25.89368 63.811h-5.584l-9.9072-24.36257h-26.0738l-9.50185 24.36257zm16.79712-29.136h22.11094l-11.25812-27.785z"/><path d="m275.61149 59.06736a25.07586 25.07586 0 0 1 7.11513-18.23815 23.93349 23.93349 0 0 1 17.87789-7.29521 24.43937 24.43937 0 0 1 11.821 2.6344 20.34321 20.34321 0 0 1 7.27275 6.192l-3.69266 3.06221a19.64525 19.64525 0 0 0 -15.49117-7.11513 18.104 18.104 0 0 0 -13.915 5.89925 21.05477 21.05477 0 0 0 -5.44893 14.86072q0 9.0065 5.60654 14.8382a18.54886 18.54886 0 0 0 13.93756 5.83171 19.64648 19.64648 0 0 0 8.9614-1.89146 24.89121 24.89121 0 0 0 6.935-5.31383l3.28737 2.88208a23.96685 23.96685 0 0 1 -7.633 6.37209 23.54187 23.54187 0 0 1 -11.64089 2.72447 25.627 25.627 0 0 1 -13.0369-3.30989 22.72488 22.72488 0 0 1 -8.84888-9.09656 27.11578 27.11578 0 0 1 -3.10721-13.0369z"/><path d="m322.89559 39.118v-4.77347h5.35886v-7.47539h5.35886v7.47539h10.5376v4.77347h-10.5376v32.32578q0 4.23869 1.17085 6.03811 1.17084 1.80693 5.08867 1.805h4.143v4.59711q-2.43176.17449-4.68338.17637-6.43965 0-8.75882-2.83329-2.31916-2.837-2.31917-8.954v-33.15508z"/><path d="m350.54552 26.66649a4.14823 4.14823 0 0 1 -1.2609-3.08472 4.22244 4.22244 0 0 1 1.2609-3.10724 4.34885 4.34885 0 0 1 6.12442 0 4.22241 4.22241 0 0 1 1.26091 3.10724 4.1482 4.1482 0 0 1 -1.26091 3.08472 4.40519 4.40519 0 0 1 -6.12442 0zm.4053 57.03363v-49.35559h5.35886v49.35559z"/><path d="m361.44338 34.34453h5.89926l17.42757 43.18614 17.24743-43.18614h5.62906l-20.12951 49.35559h-5.80919z"/><path d="m407.87187 59.06736q0-11.21308 6.77738-18.37325a22.79508 22.79508 0 0 1 17.315-7.16016q10.63329 0 17.16113 6.43964 6.52407 6.43965 6.79615 17.51763 0 2.02647-.09007 3.06221h-42.4206q.49536 8.8714 5.67409 14.02762t13.59981 5.15622a18.62607 18.62607 0 0 0 11.07048-3.10727 23.451 23.451 0 0 0 7.29151-9.14159l4.07544 1.84633a24.76153 24.76153 0 0 1 -8.54866 11.01044 23.0775 23.0775 0 0 1 -13.88877 4.16551q-11.033 0-17.92293-7.02507t-6.88996-18.41826zm5.71912-3.10724h36.79153q-.31522-8.331-5.44893-12.99187t-13.14948-4.66086a17.3008 17.3008 0 0 0 -12.40645 4.68338q-4.93105 4.68338-5.78666 12.96935z"/><path d="m216.74307 0h-3.99448l-179.50328 129.22526a4.04669 4.04669 0 0 0 .31931 6.77615l102.21453 59.88938 3.47764 2.034a.42769.42769 0 0 0 .614-.21279l77.3869-196.95685a.55281.55281 0 0 0 -.51462-.75515z" fill="#f7bb38"/><path d="m21.59838 26.91839a3.70867 3.70867 0 0 0 -2.49923 5.83026l18.17845 25.41882 175.4705-58.16747z" fill="#622ef2"/><path d="m212.7481 0-175.4705 58.16747-34.50226 11.44053a4.04753 4.04753 0 0 0 -1.72277 6.5623l47.37926 42.10481z" fill="#fc5050"/><path d="m217.33946 162.8854v-63.811h7.74559l24.81289 58.00183 24.8129-58.00183h7.38532v63.811h-5.35886v-55.8853l-24.18244 55.8853h-5.71912l-24.31754-55.8853v55.8853z"/><path d="m290.42717 138.25264q0-11.2131 6.77739-18.37325a22.795 22.795 0 0 1 17.315-7.16017q10.6333 0 17.16113 6.43965 6.52408 6.43964 6.79615 17.51763 0 2.02645-.09006 3.06221h-42.42061q.49535 8.87139 5.67409 14.02761t13.5998 5.15622a18.62616 18.62616 0 0 0 11.07049-3.10724 23.451 23.451 0 0 0 7.29151-9.14159l4.07544 1.84629a24.76155 24.76155 0 0 1 -8.54867 11.01044 23.07752 23.07752 0 0 1 -13.88877 4.1655q-11.03295 0-17.92292-7.02506t-6.88997-18.41824zm5.71913-3.10725h36.79153q-.31522-8.331-5.44893-12.99186t-13.14948-4.66087a17.30082 17.30082 0 0 0 -12.40642 4.68334q-4.93108 4.68341-5.7867 12.96939z"/><path d="m343.70059 138.25264a26.29792 26.29792 0 0 1 3.28737-13.10445 23.74308 23.74308 0 0 1 9.00649-9.1416 25.199 25.199 0 0 1 12.78923-3.28737 24.03863 24.03863 0 0 1 11.43825 2.7695 19.813 19.813 0 0 1 7.83565 7.00255v-27.01949h5.35886v67.41362h-5.35886v-9.59192a15.13369 15.13369 0 0 1 -2.52182 3.4675 24.735 24.735 0 0 1 -3.98538 3.33241 20.13717 20.13717 0 0 1 -5.71912 2.61188 24.75689 24.75689 0 0 1 -7.04758.99071q-11.033 0-18.058-7.04758t-7.02509-18.39576zm5.539 0q0 9.09655 5.494 14.88323a19.97765 19.97765 0 0 0 28.12278 0q5.51647-5.78667 5.51647-14.88323 0-9.05154-5.539-14.90575a19.76024 19.76024 0 0 0 -28.07775 0q-5.5165 5.85422-5.51651 14.90575z"/><path d="m403.72888 105.85177a4.14824 4.14824 0 0 1 -1.26091-3.08472 4.22245 4.22245 0 0 1 1.26091-3.10725 4.34887 4.34887 0 0 1 6.12441 0 4.22245 4.22245 0 0 1 1.26091 3.10725 4.14824 4.14824 0 0 1 -1.26091 3.08472 4.4052 4.4052 0 0 1 -6.12441 0zm.40529 57.03363v-49.35559h5.35883v49.35559z"/><path d="m417.64391 147.75449a15.47764 15.47764 0 0 1 4.58956-11.5058 16.24624 16.24624 0 0 1 11.9186-4.52576 16.6745 16.6745 0 0 1 7.01005 1.41852 12.16083 12.16083 0 0 1 4.67212 3.445v-6.5297q0-6.12442-2.85205-9.38928-2.85957-3.26485-8.20342-3.26485-5.16747 0-7.663 2.7695a10.72253 10.72253 0 0 0 -2.62689 7.09261h-4.99861a14.28491 14.28491 0 0 1 4.06794-10.24489q3.97974-4.03039 11.40072-4.0304 8.04955 0 12.14376 4.59331 4.08669 4.59332 4.09045 12.74419v32.55846h-5.35887v-4.50325q-3.95727 5.31385-11.6822 5.31385a16.65833 16.65833 0 0 1 -11.82853-4.36815 15.08816 15.08816 0 0 1 -4.67963-11.57336zm5.35887 0a11.42367 11.42367 0 0 0 3.14477 8.26346 10.9659 10.9659 0 0 0 8.271 3.26485 11.3019 11.3019 0 0 0 8.316-3.26485 12.07629 12.07629 0 0 0 -.02252-16.572 11.351 11.351 0 0 0 -8.38355-3.30989 10.80217 10.80217 0 0 0 -8.24848 3.26494 11.6843 11.6843 0 0 0 -3.07722 8.35349z"/></svg>