<svg xmlns="http://www.w3.org/2000/svg" xmlns:xlink="http://www.w3.org/1999/xlink" viewBox="0 0 144 82.27"><defs><style>.cls-1{fill:url(#radial-gradient);}.cls-2{fill:url(#radial-gradient-2);}.cls-3{fill:url(#radial-gradient-3);}.cls-4{fill:url(#radial-gradient-4);}.cls-5{fill:none;}.cls-6{isolation:isolate;}.cls-7{fill:url(#linear-gradient);}.cls-10,.cls-14,.cls-19,.cls-24,.cls-25,.cls-27,.cls-28,.cls-32,.cls-35,.cls-8,.cls-9{mix-blend-mode:multiply;}.cls-10,.cls-16,.cls-17,.cls-24,.cls-25,.cls-27,.cls-28,.cls-29,.cls-30,.cls-32,.cls-34,.cls-35,.cls-8,.cls-9{opacity:0.5;}.cls-8{fill:url(#linear-gradient-2);}.cls-9{fill:url(#linear-gradient-3);}.cls-10{fill:url(#linear-gradient-4);}.cls-11,.cls-18{fill:#fff;}.cls-11{opacity:0.8;}.cls-12{fill:url(#linear-gradient-5);}.cls-13{fill:#2c2a46;}.cls-14{fill:url(#White_Black);}.cls-15,.cls-29{fill:#00a99d;}.cls-16,.cls-17,.cls-21,.cls-34{mix-blend-mode:screen;}.cls-16{fill:url(#linear-gradient-6);}.cls-19{opacity:0.6;}.cls-20{fill:#002d73;}.cls-21{opacity:0.1;fill:url(#linear-gradient-7);}.cls-22{clip-path:url(#clip-path);}.cls-23{fill:url(#linear-gradient-8);}.cls-24{fill:url(#linear-gradient-9);}.cls-25{fill:url(#linear-gradient-10);}.cls-26,.cls-27{fill:url(#linear-gradient-11);}.cls-28{fill:url(#linear-gradient-13);}.cls-31{fill:url(#linear-gradient-14);}.cls-32{fill:url(#linear-gradient-15);}.cls-33,.cls-34{fill:url(#linear-gradient-16);}.cls-35{fill:url(#linear-gradient-18);}.cls-36{mask:url(#mask);}.cls-37{mask:url(#mask-2);}.cls-38{mask:url(#mask-3);}.cls-39{mask:url(#mask-4);}</style><radialGradient id="radial-gradient" cx="36444.73" cy="-16771.76" r="90.69" gradientTransform="matrix(0.16, 0, 0, 0.3, -5810.31, 5120.69)" gradientUnits="userSpaceOnUse"><stop offset="0.15" stop-color="#fff"/><stop offset="0.2" stop-color="#dadada"/><stop offset="0.28" stop-color="#a8a8a8"/><stop offset="0.37" stop-color="#7b7b7b"/><stop offset="0.46" stop-color="#555"/><stop offset="0.55" stop-color="#363636"/><stop offset="0.65" stop-color="#1e1e1e"/><stop offset="0.75" stop-color="#0d0d0d"/><stop offset="0.86" stop-color="#030303"/><stop offset="1"/></radialGradient><radialGradient id="radial-gradient-2" cx="35747.03" cy="-16774.08" r="90.69" xlink:href="#radial-gradient"/><radialGradient id="radial-gradient-3" cx="31888.67" cy="-21823.43" r="90.69" gradientTransform="matrix(0.26, 0, 0, 0.24, -8129.38, 5425.41)" xlink:href="#radial-gradient"/><radialGradient id="radial-gradient-4" cx="31750.37" cy="-21824.28" r="90.69" gradientTransform="matrix(0.26, 0, 0, 0.24, -8129.38, 5425.41)" xlink:href="#radial-gradient"/><linearGradient id="linear-gradient" x1="34.12" y1="15.85" x2="114.46" y2="68.98" gradientUnits="userSpaceOnUse"><stop offset="0" stop-color="#f3f6fa"/><stop offset="0.19" stop-color="#eaeff6"/><stop offset="0.48" stop-color="#d2ddea"/><stop offset="0.86" stop-color="#abc0d7"/><stop offset="1" stop-color="#9bb4cf"/></linearGradient><linearGradient id="linear-gradient-2" x1="72.13" y1="33.59" x2="72.13" y2="85.34" xlink:href="#linear-gradient"/><linearGradient id="linear-gradient-3" x1="74.82" y1="52.1" x2="82.75" y2="84.91" xlink:href="#linear-gradient"/><linearGradient id="linear-gradient-4" x1="92.43" y1="54.52" x2="111.94" y2="67.34" xlink:href="#linear-gradient"/><linearGradient id="linear-gradient-5" x1="72.14" y1="52.88" x2="72.14" y2="32.41" gradientTransform="translate(33.79 110.48) rotate(-90)" xlink:href="#linear-gradient"/><linearGradient id="White_Black" x1="39.88" y1="38.35" x2="104.39" y2="38.35" gradientUnits="userSpaceOnUse"><stop offset="0" stop-color="#fff"/><stop offset="1"/></linearGradient><linearGradient id="linear-gradient-6" x1="72.14" y1="30.21" x2="72.14" y2="42.64" gradientUnits="userSpaceOnUse"><stop offset="0" stop-color="#2adeff"/><stop offset="0.06" stop-color="#29cfef"/><stop offset="0.31" stop-color="#2291ac"/><stop offset="0.54" stop-color="#1d5f77"/><stop offset="0.74" stop-color="#1a3c50"/><stop offset="0.9" stop-color="#182639"/><stop offset="1" stop-color="#171e30"/></linearGradient><linearGradient id="linear-gradient-7" x1="72.19" y1="27.35" x2="72.19" y2="56.79" gradientUnits="userSpaceOnUse"><stop offset="0" stop-color="#2adeff"/><stop offset="0.1" stop-color="#29d6f6"/><stop offset="0.26" stop-color="#27bfde"/><stop offset="0.46" stop-color="#239bb7"/><stop offset="0.7" stop-color="#1e6980"/><stop offset="0.96" stop-color="#18293c"/><stop offset="1" stop-color="#171e30"/></linearGradient><clipPath id="clip-path"><rect class="cls-5" x="60.24" y="6.94" width="23.78" height="62.81" rx="11.57" transform="translate(110.48 -33.79) rotate(90)"/></clipPath><linearGradient id="linear-gradient-8" x1="114.01" y1="11.17" x2="128.64" y2="56.9" xlink:href="#linear-gradient"/><linearGradient id="linear-gradient-9" x1="125.28" y1="37.03" x2="117.61" y2="56.42" xlink:href="#linear-gradient"/><linearGradient id="linear-gradient-10" x1="124.17" y1="36.59" x2="116.5" y2="55.98" xlink:href="#linear-gradient"/><linearGradient id="linear-gradient-11" x1="104.71" y1="34.88" x2="131.27" y2="41.98" xlink:href="#linear-gradient"/><linearGradient id="linear-gradient-13" x1="127.85" y1="41.06" x2="133.81" y2="42.91" xlink:href="#linear-gradient"/><linearGradient id="linear-gradient-14" x1="14.51" y1="26.19" x2="36.03" y2="73.6" xlink:href="#linear-gradient"/><linearGradient id="linear-gradient-15" x1="-4152.97" y1="37.03" x2="-4160.64" y2="56.42" gradientTransform="matrix(-1, 0, 0, 1, -4133.31, 0)" xlink:href="#linear-gradient"/><linearGradient id="linear-gradient-16" x1="-4173.54" y1="34.88" x2="-4146.98" y2="41.98" gradientTransform="matrix(-1, 0, 0, 1, -4133.31, 0)" xlink:href="#linear-gradient"/><linearGradient id="linear-gradient-18" x1="-4150.41" y1="41.06" x2="-4144.44" y2="42.91" gradientTransform="matrix(-1, 0, 0, 1, -4133.31, 0)" xlink:href="#linear-gradient"/><mask id="mask" x="114.29" y="13.71" width="29.71" height="54.54" maskUnits="userSpaceOnUse"><path class="cls-1" d="M144,40.89c.09,15.06-6.49,27.31-14.69,27.36s-14.93-12.12-15-27.18S120.77,13.76,129,13.71,143.91,25.83,144,40.89Z"/></mask><mask id="mask-2" x="0" y="13.71" width="29.71" height="54.54" maskUnits="userSpaceOnUse"><path class="cls-2" d="M29.71,40.89C29.8,56,23.22,68.2,15,68.25S.09,56.13,0,41.07,6.49,13.76,14.69,13.71,29.62,25.83,29.71,40.89Z"/></mask><mask id="mask-3" x="67.19" y="15.2" width="46.95" height="50.87" maskUnits="userSpaceOnUse"><path class="cls-3" d="M114.14,37.25c.08,12.25-10.37,22.25-23.34,22.33s-23.53-9.8-23.6-22S77.57,15.27,90.54,15.2,114.07,25,114.14,37.25Z"/></mask><mask id="mask-4" x="31.4" y="15.2" width="46.95" height="50.87" maskUnits="userSpaceOnUse"><path class="cls-4" d="M78.35,37.25C78.42,49.5,68,59.5,55,59.58s-23.54-9.8-23.61-22S41.78,15.27,54.74,15.2,78.28,25,78.35,37.25Z"/></mask></defs><g class="cls-6"><g id="Layer_2" data-name="Layer 2"><g id="Layer_1-2" data-name="Layer 1"><path class="cls-7" d="M125.9,41.14c0,27.47-24.07,41.13-53.77,41.13S18.37,67.82,18.37,41.13,42.44,0,72.13,0,125.9,13.66,125.9,41.14Z"/><path class="cls-8" d="M72.13,0C42.44,0,18.37,14.45,18.37,41.13S42.44,82.27,72.13,82.27,125.9,68.61,125.9,41.14,101.83,0,72.13,0Zm0,71.62C49.75,71.62,31.6,59.12,31.6,39S49.75,6.39,72.13,6.39,112.67,18.29,112.67,39,94.52,71.62,72.13,71.62Z"/><path class="cls-9" d="M72.13,0c-23.69,0-43.81,11.56-51,27.17,1.69-2.57,3.72-8.34,6.09-10.15l1.43-1.72c3.47-3,7.55-6.59,11.74-8.8,4.92-2.22,10.09-4.26,15.51-4.81a66.81,66.81,0,0,1,18.19-.42A71.2,71.2,0,0,1,110.53,17c5.4,4.48,9.31,14.64,8.33,21.59-.68,4.84-3.61,9.1-7.11,12.52-29.61,28.91-55,36.18-86.1,9.41-2.07-1.78-3.92-10.44-5.24-12.83a3.16,3.16,0,0,1-.25-.6c-.36-1.09-.66-2.47-.89-3.37s-.66-2.24-.89-3.37c0,.27,0,.54,0,.81,0,26.69,24.07,41.14,53.76,41.14S125.9,68.61,125.9,41.14,101.83,0,72.13,0Z"/><path class="cls-10" d="M93.31,3.5c2.4.47,6.44,4.1,8.37,5.65,2.9,2.33,7.15,8.27,9.16,11.4,2.89,4.49,4,13.44,3.8,18.77-.19,5.56-4.92,14.53-8.47,18.15A43.66,43.66,0,0,1,93.67,66c-18.81,9.09-48.41,7.82-61.32,3.86.87,1.19,5.33,4,7.81,4.91,3,1.09,6.13,3.5,9.27,4.11A112.09,112.09,0,0,0,70.91,80.7c29,0,52.55-13.49,52.55-40.35C123.46,20.91,111.13,7,93.31,3.5Z"/><path class="cls-11" d="M60.78,24.58c.81,3.44-3.19,7.31-8.92,8.65s-11-.37-11.82-3.81,3.18-7.3,8.92-8.64S60,21.14,60.78,24.58Z"/><rect class="cls-12" x="58.54" y="5.24" width="27.19" height="66.22" rx="13.27" transform="translate(110.48 -33.79) rotate(90)"/><rect class="cls-13" x="39.88" y="25.6" width="64.51" height="25.49" rx="12.42"/><rect class="cls-14" x="39.88" y="25.6" width="64.51" height="25.49" rx="12.42"/><path class="cls-15" d="M62,38.11a6.77,6.77,0,1,1-6.77-6.76A6.77,6.77,0,0,1,62,38.11Z"/><path class="cls-15" d="M96.72,38.11A6.77,6.77,0,1,1,90,31.35,6.77,6.77,0,0,1,96.72,38.11Z"/><path class="cls-16" d="M52.17,41.41a76.41,76.41,0,0,1,21.69-2.47,100,100,0,0,1,28.42,3.92l.41.16a11.47,11.47,0,0,0,.85-4.35V38a11.59,11.59,0,0,0-3-7.78A44.07,44.07,0,0,1,89,33.68a57.33,57.33,0,0,1-16.31,1.86,69.26,69.26,0,0,1-28.58-5.71A11.53,11.53,0,0,0,40.73,38v.65A11.52,11.52,0,0,0,42,43.94,58.63,58.63,0,0,1,52.17,41.41Z"/><g class="cls-17"><path class="cls-18" d="M78.69,26.46c-2.74.09-5.49.13-8.23.2l-8.24.12c-2.75,0-5.49,0-8.24.08a18.88,18.88,0,0,0-4,.26,10.76,10.76,0,0,0-3.65,1.52,11.25,11.25,0,0,0-4.71,6.18l-.26,1-.15,1a16.62,16.62,0,0,0-.09,2,11.12,11.12,0,0,0,.7,3.91A11.48,11.48,0,0,0,50.74,50a39.41,39.41,0,0,0,4.09.23,31.63,31.63,0,0,1-4.13,0,11.51,11.51,0,0,1-4-1.19,11.9,11.9,0,0,1-5.52-6.13,11.28,11.28,0,0,1-.84-4.13,13.33,13.33,0,0,1,.47-4.2,12.16,12.16,0,0,1,5-6.66,11.74,11.74,0,0,1,3.93-1.61,12.64,12.64,0,0,1,2.12-.25c.71,0,1.38,0,2.07,0,2.75,0,5.49,0,8.24.08l8.24.12C73.2,26.32,76,26.36,78.69,26.46Z"/></g><g class="cls-19"><path class="cls-20" d="M102.69,37.17a10.86,10.86,0,0,1-3.06,8.7,11.18,11.18,0,0,1-4.06,2.62,11.51,11.51,0,0,1-1.18.36c-.39.1-.8.15-1.21.23s-.82.06-1.23.09l-1.16,0c-3.11.07-6.22.09-9.33.14l-9.33,0-9.32,0c-3.11-.05-6.22-.06-9.33-.14l-1.16,0c-.41,0-.83-.05-1.23-.09s-.82-.12-1.21-.22a9.5,9.5,0,0,1-1.18-.37,11.29,11.29,0,0,1-4.06-2.61,10.86,10.86,0,0,1-3.06-8.71,12.41,12.41,0,0,0,1,4.49,10.28,10.28,0,0,0,2.67,3.61,10.45,10.45,0,0,0,3.85,2.17c.34.12.71.17,1.07.26s.72.1,1.09.16.73,0,1.1,0l1.16,0c3.11-.08,6.22-.1,9.33-.14l9.32,0,9.33,0c3.11.05,6.22.06,9.33.14l1.16,0,1.1,0c.36,0,.73-.08,1.09-.15s.73-.14,1.07-.27a10.45,10.45,0,0,0,3.85-2.17,10.19,10.19,0,0,0,2.67-3.61A12.41,12.41,0,0,0,102.69,37.17Z"/></g><path class="cls-21" d="M95.93,43.11c-3.57,2.27-8.55,4.75-13,4.75-3.4,0-5.78-1.38-6.73-4.62C75.18,39.56,78.08,35.1,80,32.16a33.1,33.1,0,0,1,4.77-5.7H56.45c.16,1.75-.83,4-1.79,5.54-2.54,3.94-8,8.35-12.88,8.35a5.26,5.26,0,0,1-.93-.07,11.49,11.49,0,0,0,3.81,7.06c.62-1.21,1.35-2.35,2-3.31A34.46,34.46,0,0,1,56.67,34.5c2.95-1.88,7.06-3.93,10.7-3.93,2.82,0,4.78,1.14,5.56,3.82.89,3-1.51,6.72-3.07,9.16a30.67,30.67,0,0,1-6.15,6.69H92a11.58,11.58,0,0,0,11.57-11.57V38c0-.31,0-.62,0-.92A46.72,46.72,0,0,1,95.93,43.11Z"/><g class="cls-22"><path class="cls-18" d="M60.78,24.58c.81,3.44-3.19,7.31-8.92,8.65s-11-.37-11.82-3.81,3.18-7.3,8.92-8.64S60,21.14,60.78,24.58Z"/></g><path class="cls-23" d="M128.09,57.14s-4.89,2-7,2-3.92-8.06-3.92-18,1.76-18,3.92-18c1.11,0,6.94,2,6.94,2Z"/><path class="cls-24" d="M123.37,49.4c-1.5-2.66-1.94-6.08-2.29-9.09a121.29,121.29,0,0,1-.75-13.21,5,5,0,0,1,1.91-3.8,6.63,6.63,0,0,0-1.2-.22c-2.16,0-3.92,8.07-3.92,18s1.76,18,3.92,18,7-2,7-2l0-2.92A13.57,13.57,0,0,1,123.37,49.4Z"/><path class="cls-25" d="M122.14,54.78c-2.11-3.05-3.07-7-3.56-10.58a42,42,0,0,1,1.83-17.91,4.33,4.33,0,0,1,.37-1.12c.2-.57.4-1.14.62-1.7a3.13,3.13,0,0,1,.15-.32,2.41,2.41,0,0,0-.51-.07c-2.16,0-3.92,8.07-3.92,18s1.76,18,3.92,18a15.93,15.93,0,0,0,4.07-.89A21.86,21.86,0,0,1,122.14,54.78Z"/><path class="cls-26" d="M131.46,41.1c0,8.87-1.57,16.06-3.5,16.06S124.47,50,124.47,41.1,126,25,128,25,131.46,32.23,131.46,41.1Z"/><path class="cls-27" d="M131.46,41.1c0,8.87-1.57,16.06-3.5,16.06S124.47,50,124.47,41.1,126,25,128,25,131.46,32.23,131.46,41.1Z"/><path class="cls-28" d="M128,25.05a4.62,4.62,0,0,1,.77,2.41c.05,3.41.75,6.77.72,10.18a50.87,50.87,0,0,1-1.07,8,35,35,0,0,1-2.5,8.57c.57,1.83,1.26,2.9,2,2.9,1.93,0,3.5-7.19,3.5-16.06S129.93,25.24,128,25.05Z"/><ellipse class="cls-29" cx="128.81" cy="41.1" rx="2.55" ry="14.17"/><g class="cls-30"><path class="cls-18" d="M128,57.16a1.29,1.29,0,0,1-.91-.5,4.84,4.84,0,0,1-.58-.91,12.56,12.56,0,0,1-.76-2,30.86,30.86,0,0,1-.87-4.17,62.5,62.5,0,0,1,0-17,31.52,31.52,0,0,1,.87-4.17,12.56,12.56,0,0,1,.76-2,4.46,4.46,0,0,1,.58-.9A1.26,1.26,0,0,1,128,25a1.23,1.23,0,0,0-.86.54,4.12,4.12,0,0,0-.52.91,11.75,11.75,0,0,0-.67,2,32.36,32.36,0,0,0-.75,4.16,68.07,68.07,0,0,0-.48,8.45,68.18,68.18,0,0,0,.48,8.45,32.68,32.68,0,0,0,.75,4.16,11.75,11.75,0,0,0,.67,2,3.84,3.84,0,0,0,.52.9A1.25,1.25,0,0,0,128,57.16Z"/></g><path class="cls-31" d="M16.86,57.14s4.88,2,7,2,3.92-8.06,3.92-18-1.75-18-3.92-18c-1.11,0-6.93,2-6.93,2Z"/><path class="cls-32" d="M21.58,49.4c1.49-2.66,1.93-6.08,2.28-9.09a116.46,116.46,0,0,0,.75-13.21,5.06,5.06,0,0,0-1.9-3.8,6.56,6.56,0,0,1,1.19-.22c2.17,0,3.92,8.07,3.92,18s-1.75,18-3.92,18-7-2-7-2V54.22A13.68,13.68,0,0,0,21.58,49.4Z"/><path class="cls-33" d="M13.49,41.1c0,8.87,1.56,16.06,3.49,16.06S20.47,50,20.47,41.1,18.91,25,17,25,13.49,32.23,13.49,41.1Z"/><path class="cls-34" d="M13.49,41.1c0,8.87,1.56,16.06,3.49,16.06S20.47,50,20.47,41.1,18.91,25,17,25,13.49,32.23,13.49,41.1Z"/><path class="cls-35" d="M16.9,25.05a4.62,4.62,0,0,0-.77,2.41c-.05,3.41-.74,6.77-.71,10.18a48.65,48.65,0,0,0,1.07,8A34.57,34.57,0,0,0,19,54.26c-.57,1.83-1.26,2.9-2,2.9-1.93,0-3.49-7.19-3.49-16.06S15,25.24,16.9,25.05Z"/><path class="cls-29" d="M13.58,41.1c0,7.82,1.14,14.16,2.55,14.16s2.55-6.34,2.55-14.16-1.14-14.17-2.55-14.17S13.58,33.27,13.58,41.1Z"/><g class="cls-30"><path class="cls-18" d="M17,57.16a1.25,1.25,0,0,0,.86-.55,3.87,3.87,0,0,0,.53-.9,12.7,12.7,0,0,0,.67-2,34.53,34.53,0,0,0,.75-4.16,68.17,68.17,0,0,0,.47-8.45,68.06,68.06,0,0,0-.47-8.45A34.18,34.18,0,0,0,19,28.49a12.7,12.7,0,0,0-.67-2,4.16,4.16,0,0,0-.53-.91A1.23,1.23,0,0,0,17,25a1.24,1.24,0,0,1,.91.5,4.07,4.07,0,0,1,.58.9,11.7,11.7,0,0,1,.77,2,33.21,33.21,0,0,1,.87,4.17,63.66,63.66,0,0,1,.58,8.5,63.4,63.4,0,0,1-.58,8.49,30.89,30.89,0,0,1-.88,4.17,10.89,10.89,0,0,1-.76,2,4.38,4.38,0,0,1-.58.91A1.27,1.27,0,0,1,17,57.16Z"/></g><g class="cls-36"><path class="cls-29" d="M144,40.89c.09,15.06-6.49,27.31-14.69,27.36s-14.93-12.12-15-27.18S120.77,13.76,129,13.71,143.91,25.83,144,40.89Z"/></g><g class="cls-37"><path class="cls-29" d="M29.71,40.89C29.8,56,23.22,68.2,15,68.25S.09,56.13,0,41.07,6.49,13.76,14.69,13.71,29.62,25.83,29.71,40.89Z"/></g><g class="cls-38"><path class="cls-29" d="M114.14,37.25C114.22,49.5,103.77,66,90.8,66.07S67.27,49.78,67.2,37.53,77.57,15.27,90.54,15.2,114.07,25,114.14,37.25Z"/></g><g class="cls-39"><path class="cls-29" d="M78.35,37.25C78.42,49.5,68,66,55,66.07S31.47,49.78,31.4,37.53,41.78,15.27,54.74,15.2,78.28,25,78.35,37.25Z"/></g></g></g></g></svg>